# xmcd
#
# Track frame offsets:
#	150
#	18603
#	35091
#	57392
#	72493
#	86932
#	106976
#	123568
#	140665
#	159419
#
# Disc length: 2363 seconds
#
# Revision: 1
# Processed by: cddbd v1.5.2PL0 Copyright (c) Steve Scherf et al.
# Submitted via: audiograbber 1.83.01
#
DISCID=9609390a
DTITLE=Ben Coulter - "Cuzz" Vol. 2 - Feel like goin' home
DYEAR=2008
DGENRE=Country
TTITLE0=Higway 61 Blues
TTITLE1=Songwriter
TTITLE2=Long Black Cars and Cocaine
TTITLE3=I wish you were mine
TTITLE4=Delta Mud
TTITLE5=Feel like Goin' Home
TTITLE6=When Haggard was King
TTITLE7=What I would do to just be with you
TTITLE8=Almost Home
TTITLE9=You Don't have to remind me
EXTD=
EXTT0=
EXTT1=
EXTT2=
EXTT3=
EXTT4=
EXTT5=
EXTT6=
EXTT7=
EXTT8=
EXTT9=
PLAYORDER=
